<svg xmlns="http://www.w3.org/2000/svg" version="1.1" xmlns:xlink="http://www.w3.org/1999/xlink" xmlns:svgjs="http://svgjs.com/svgjs" width="1920" height="1080" preserveAspectRatio="none" viewBox="0 0 1920 1080"><g mask="url(&quot;#SvgjsMask1094&quot;)" fill="none"><rect width="1920" height="1080" x="0" y="0" fill="rgba(16, 16, 16, 1)"></rect><path d="M0,761.225C139.113,742.335,236.121,625.232,362.432,563.955C511.365,491.704,707.551,500.494,808.259,369.12C912.733,232.833,923.264,40.649,893.188,-128.421C863.603,-294.732,775.717,-452.494,643.417,-557.524C520.748,-654.908,345.855,-623.596,199.426,-679.183C35.544,-741.396,-99.087,-959.06,-264.957,-902.36C-433.295,-844.816,-403.925,-584.1,-505.662,-438.159C-592.115,-314.143,-779.968,-264.45,-812.561,-116.829C-845.289,31.405,-735.968,169.258,-669.955,305.958C-605.367,439.708,-554.582,588.311,-431.735,671.792C-307.666,756.103,-148.641,781.409,0,761.225" fill="#0a0a0a"></path><path d="M1920 1570.26C2021.772 1565.1390000000001 2131.057 1596.81 2218.382 1544.292 2306.365 1491.378 2326.026 1376.782 2383.342 1291.601 2454.582 1185.726 2600.594 1110.312 2596.207 982.776 2591.885 857.131 2461.305 774.452 2362.865 696.255 2277.687 628.592 2175.331 596.539 2071.041 565.601 1966.461 534.577 1861.665 496.351 1754.315 515.729 1640.4270000000001 536.287 1537.748 596.21 1454.739 676.8489999999999 1366.71 762.364 1274.3310000000001 863.861 1269.704 986.501 1265.144 1107.371 1371.702 1197.906 1431.106 1303.27 1484.759 1398.434 1505.796 1522.96 1601.676 1575.321 1696.739 1627.2359999999999 1811.8220000000001 1575.703 1920 1570.26" fill="#161616"></path></g><defs><mask id="SvgjsMask1094"><rect width="1920" height="1080" fill="#ffffff"></rect></mask></defs></svg>