<svg xmlns="http://www.w3.org/2000/svg" version="1.1" xmlns:xlink="http://www.w3.org/1999/xlink" xmlns:svgjs="http://svgjs.com/svgjs" width="640" height="620" preserveAspectRatio="none" viewBox="0 0 640 620"><g mask="url(&quot;#SvgjsMask1195&quot;)" fill="none"><rect width="640" height="620" x="0" y="0" fill="rgba(0, 0, 0, 1)"></rect><g><path d="M367.5 332.5L367.5 612.5" stroke-width="5.83" stroke="rgba(255, 255, 255, 1)"></path><path d="M361.67 332.5 a5.83 5.83 0 1 0 11.66 0 a5.83 5.83 0 1 0 -11.66 0zM361.67 612.5 a5.83 5.83 0 1 0 11.66 0 a5.83 5.83 0 1 0 -11.66 0z" fill="rgba(255, 255, 255, 1)"></path><path d="M332.5 87.5L367.5 52.5L367.5 17.5" stroke-width="5.83" stroke="rgba(255, 255, 255, 1)"></path><path d="M326.67 87.5 a5.83 5.83 0 1 0 11.66 0 a5.83 5.83 0 1 0 -11.66 0zM361.67 17.5 a5.83 5.83 0 1 0 11.66 0 a5.83 5.83 0 1 0 -11.66 0z" fill="rgba(255, 255, 255, 1)"></path><path d="M262.5 227.5L332.5 297.5L577.5 297.5L647.5 227.5L647.5 17.5" stroke-width="5.83" stroke="rgba(255, 255, 255, 1)"></path><path d="M256.67 227.5 a5.83 5.83 0 1 0 11.66 0 a5.83 5.83 0 1 0 -11.66 0zM641.67 17.5 a5.83 5.83 0 1 0 11.66 0 a5.83 5.83 0 1 0 -11.66 0z" fill="rgba(255, 255, 255, 1)"></path><path d="M87.5 367.5L437.5 17.5L612.5 17.5" stroke-width="5.83" stroke="rgba(255, 255, 255, 1)"></path><path d="M81.67 367.5 a5.83 5.83 0 1 0 11.66 0 a5.83 5.83 0 1 0 -11.66 0zM606.67 17.5 a5.83 5.83 0 1 0 11.66 0 a5.83 5.83 0 1 0 -11.66 0z" fill="rgba(255, 255, 255, 1)"></path><path d="M507.5 87.5L472.5 52.5L437.5 52.5L297.5 192.5L297.5 227.5L332.5 262.5L577.5 262.5L612.5 227.5L612.5 122.5" stroke-width="5.83" stroke="rgba(255, 255, 255, 1)"></path><path d="M501.67 87.5 a5.83 5.83 0 1 0 11.66 0 a5.83 5.83 0 1 0 -11.66 0zM606.67 122.5 a5.83 5.83 0 1 0 11.66 0 a5.83 5.83 0 1 0 -11.66 0z" fill="rgba(255, 255, 255, 1)"></path><path d="M157.5 157.5L17.5 297.5L17.5 402.5" stroke-width="5.83" stroke="rgba(255, 255, 255, 1)"></path><path d="M151.67 157.5 a5.83 5.83 0 1 0 11.66 0 a5.83 5.83 0 1 0 -11.66 0zM11.67 402.5 a5.83 5.83 0 1 0 11.66 0 a5.83 5.83 0 1 0 -11.66 0z" fill="rgba(255, 255, 255, 1)"></path><path d="M437.5 87.5L542.5 192.5L577.5 192.5" stroke-width="5.83" stroke="rgba(255, 255, 255, 1)"></path><path d="M431.67 87.5 a5.83 5.83 0 1 0 11.66 0 a5.83 5.83 0 1 0 -11.66 0zM571.67 192.5 a5.83 5.83 0 1 0 11.66 0 a5.83 5.83 0 1 0 -11.66 0z" fill="rgba(255, 255, 255, 1)"></path><path d="M227.5 17.5L17.5 17.5" stroke-width="5.83" stroke="rgba(255, 255, 255, 1)"></path><path d="M221.67 17.5 a5.83 5.83 0 1 0 11.66 0 a5.83 5.83 0 1 0 -11.66 0zM11.67 17.5 a5.83 5.83 0 1 0 11.66 0 a5.83 5.83 0 1 0 -11.66 0z" fill="rgba(255, 255, 255, 1)"></path><path d="M192.5 402.5L192.5 297.5L227.5 262.5L262.5 262.5L332.5 332.5L332.5 507.5L227.5 612.5L87.5 612.5" stroke-width="5.83" stroke="rgba(255, 255, 255, 1)"></path><path d="M186.67 402.5 a5.83 5.83 0 1 0 11.66 0 a5.83 5.83 0 1 0 -11.66 0zM81.67 612.5 a5.83 5.83 0 1 0 11.66 0 a5.83 5.83 0 1 0 -11.66 0z" fill="rgba(255, 255, 255, 1)"></path><path d="M647.5 542.5L647.5 577.5L612.5 612.5L402.5 612.5" stroke-width="5.83" stroke="rgba(255, 255, 255, 1)"></path><path d="M641.67 542.5 a5.83 5.83 0 1 0 11.66 0 a5.83 5.83 0 1 0 -11.66 0zM396.67 612.5 a5.83 5.83 0 1 0 11.66 0 a5.83 5.83 0 1 0 -11.66 0z" fill="rgba(255, 255, 255, 1)"></path><path d="M157.5 332.5L122.5 367.5L122.5 577.5" stroke-width="5.83" stroke="rgba(255, 255, 255, 1)"></path><path d="M151.67 332.5 a5.83 5.83 0 1 0 11.66 0 a5.83 5.83 0 1 0 -11.66 0zM116.67 577.5 a5.83 5.83 0 1 0 11.66 0 a5.83 5.83 0 1 0 -11.66 0z" fill="rgba(255, 255, 255, 1)"></path><path d="M647.5 507.5L647.5 332.5L612.5 297.5" stroke-width="5.83" stroke="rgba(255, 255, 255, 1)"></path><path d="M641.67 507.5 a5.83 5.83 0 1 0 11.66 0 a5.83 5.83 0 1 0 -11.66 0zM606.67 297.5 a5.83 5.83 0 1 0 11.66 0 a5.83 5.83 0 1 0 -11.66 0z" fill="rgba(255, 255, 255, 1)"></path><path d="M192.5 192.5L192.5 227.5L52.5 367.5" stroke-width="5.83" stroke="rgba(255, 255, 255, 1)"></path><path d="M186.67 192.5 a5.83 5.83 0 1 0 11.66 0 a5.83 5.83 0 1 0 -11.66 0zM46.67 367.5 a5.83 5.83 0 1 0 11.66 0 a5.83 5.83 0 1 0 -11.66 0z" fill="rgba(255, 255, 255, 1)"></path><path d="M157.5 52.5L17.5 192.5L17.5 262.5" stroke-width="5.83" stroke="rgba(255, 255, 255, 1)"></path><path d="M151.67 52.5 a5.83 5.83 0 1 0 11.66 0 a5.83 5.83 0 1 0 -11.66 0zM11.67 262.5 a5.83 5.83 0 1 0 11.66 0 a5.83 5.83 0 1 0 -11.66 0z" fill="rgba(255, 255, 255, 1)"></path><path d="M297.5 437.5L157.5 437.5" stroke-width="5.83" stroke="rgba(255, 255, 255, 1)"></path><path d="M291.67 437.5 a5.83 5.83 0 1 0 11.66 0 a5.83 5.83 0 1 0 -11.66 0zM151.67 437.5 a5.83 5.83 0 1 0 11.66 0 a5.83 5.83 0 1 0 -11.66 0z" fill="rgba(255, 255, 255, 1)"></path><path d="M577.5 402.5L612.5 367.5L612.5 332.5" stroke-width="5.83" stroke="rgba(255, 255, 255, 1)"></path><path d="M571.67 402.5 a5.83 5.83 0 1 0 11.66 0 a5.83 5.83 0 1 0 -11.66 0zM606.67 332.5 a5.83 5.83 0 1 0 11.66 0 a5.83 5.83 0 1 0 -11.66 0z" fill="rgba(255, 255, 255, 1)"></path><path d="M227.5 577.5L157.5 577.5" stroke-width="5.83" stroke="rgba(255, 255, 255, 1)"></path><path d="M221.67 577.5 a5.83 5.83 0 1 0 11.66 0 a5.83 5.83 0 1 0 -11.66 0zM151.67 577.5 a5.83 5.83 0 1 0 11.66 0 a5.83 5.83 0 1 0 -11.66 0z" fill="rgba(255, 255, 255, 1)"></path><path d="M402.5 122.5L367.5 157.5L367.5 227.5" stroke-width="5.83" stroke="rgba(255, 255, 255, 1)"></path><path d="M396.67 122.5 a5.83 5.83 0 1 0 11.66 0 a5.83 5.83 0 1 0 -11.66 0zM361.67 227.5 a5.83 5.83 0 1 0 11.66 0 a5.83 5.83 0 1 0 -11.66 0z" fill="rgba(255, 255, 255, 1)"></path><path d="M612.5 472.5L507.5 367.5L507.5 332.5" stroke-width="5.83" stroke="rgba(255, 255, 255, 1)"></path><path d="M606.67 472.5 a5.83 5.83 0 1 0 11.66 0 a5.83 5.83 0 1 0 -11.66 0zM501.67 332.5 a5.83 5.83 0 1 0 11.66 0 a5.83 5.83 0 1 0 -11.66 0z" fill="rgba(255, 255, 255, 1)"></path><path d="M437.5 332.5L437.5 577.5" stroke-width="5.83" stroke="rgba(255, 255, 255, 1)"></path><path d="M431.67 332.5 a5.83 5.83 0 1 0 11.66 0 a5.83 5.83 0 1 0 -11.66 0zM431.67 577.5 a5.83 5.83 0 1 0 11.66 0 a5.83 5.83 0 1 0 -11.66 0z" fill="rgba(255, 255, 255, 1)"></path><path d="M52.5 577.5L17.5 542.5L17.5 507.5" stroke-width="5.83" stroke="rgba(255, 255, 255, 1)"></path><path d="M46.67 577.5 a5.83 5.83 0 1 0 11.66 0 a5.83 5.83 0 1 0 -11.66 0zM11.67 507.5 a5.83 5.83 0 1 0 11.66 0 a5.83 5.83 0 1 0 -11.66 0z" fill="rgba(255, 255, 255, 1)"></path><path d="M52.5 52.5L17.5 87.5L17.5 122.5" stroke-width="5.83" stroke="rgba(255, 255, 255, 1)"></path><path d="M46.67 52.5 a5.83 5.83 0 1 0 11.66 0 a5.83 5.83 0 1 0 -11.66 0zM11.67 122.5 a5.83 5.83 0 1 0 11.66 0 a5.83 5.83 0 1 0 -11.66 0z" fill="rgba(255, 255, 255, 1)"></path><path d="M507.5 472.5L507.5 577.5" stroke-width="5.83" stroke="rgba(255, 255, 255, 1)"></path><path d="M501.67 472.5 a5.83 5.83 0 1 0 11.66 0 a5.83 5.83 0 1 0 -11.66 0zM501.67 577.5 a5.83 5.83 0 1 0 11.66 0 a5.83 5.83 0 1 0 -11.66 0z" fill="rgba(255, 255, 255, 1)"></path><path d="M227.5 332.5L227.5 402.5" stroke-width="5.83" stroke="rgba(255, 255, 255, 1)"></path><path d="M221.67 332.5 a5.83 5.83 0 1 0 11.66 0 a5.83 5.83 0 1 0 -11.66 0zM221.67 402.5 a5.83 5.83 0 1 0 11.66 0 a5.83 5.83 0 1 0 -11.66 0z" fill="rgba(255, 255, 255, 1)"></path><path d="M472.5 157.5L507.5 192.5L507.5 227.5" stroke-width="5.83" stroke="rgba(255, 255, 255, 1)"></path><path d="M466.67 157.5 a5.83 5.83 0 1 0 11.66 0 a5.83 5.83 0 1 0 -11.66 0zM501.67 227.5 a5.83 5.83 0 1 0 11.66 0 a5.83 5.83 0 1 0 -11.66 0z" fill="rgba(255, 255, 255, 1)"></path><path d="M87.5 402.5L87.5 542.5" stroke-width="5.83" stroke="rgba(255, 255, 255, 1)"></path><path d="M81.67 402.5 a5.83 5.83 0 1 0 11.66 0 a5.83 5.83 0 1 0 -11.66 0zM81.67 542.5 a5.83 5.83 0 1 0 11.66 0 a5.83 5.83 0 1 0 -11.66 0z" fill="rgba(255, 255, 255, 1)"></path><path d="M262.5 542.5L192.5 472.5L157.5 472.5" stroke-width="5.83" stroke="rgba(255, 255, 255, 1)"></path><path d="M256.67 542.5 a5.83 5.83 0 1 0 11.66 0 a5.83 5.83 0 1 0 -11.66 0zM151.67 472.5 a5.83 5.83 0 1 0 11.66 0 a5.83 5.83 0 1 0 -11.66 0z" fill="rgba(255, 255, 255, 1)"></path><path d="M227.5 87.5L297.5 87.5" stroke-width="5.83" stroke="rgba(255, 255, 255, 1)"></path><path d="M221.67 87.5 a5.83 5.83 0 1 0 11.66 0 a5.83 5.83 0 1 0 -11.66 0zM291.67 87.5 a5.83 5.83 0 1 0 11.66 0 a5.83 5.83 0 1 0 -11.66 0z" fill="rgba(255, 255, 255, 1)"></path><path d="M297.5 402.5L297.5 332.5L262.5 297.5L227.5 297.5" stroke-width="5.83" stroke="rgba(255, 255, 255, 1)"></path><path d="M291.67 402.5 a5.83 5.83 0 1 0 11.66 0 a5.83 5.83 0 1 0 -11.66 0zM221.67 297.5 a5.83 5.83 0 1 0 11.66 0 a5.83 5.83 0 1 0 -11.66 0z" fill="rgba(255, 255, 255, 1)"></path><path d="M577.5 87.5L542.5 87.5L507.5 52.5" stroke-width="5.83" stroke="rgba(255, 255, 255, 1)"></path><path d="M571.67 87.5 a5.83 5.83 0 1 0 11.66 0 a5.83 5.83 0 1 0 -11.66 0zM501.67 52.5 a5.83 5.83 0 1 0 11.66 0 a5.83 5.83 0 1 0 -11.66 0z" fill="rgba(255, 255, 255, 1)"></path><path d="M472.5 507.5L472.5 577.5" stroke-width="5.83" stroke="rgba(255, 255, 255, 1)"></path><path d="M466.67 507.5 a5.83 5.83 0 1 0 11.66 0 a5.83 5.83 0 1 0 -11.66 0zM466.67 577.5 a5.83 5.83 0 1 0 11.66 0 a5.83 5.83 0 1 0 -11.66 0z" fill="rgba(255, 255, 255, 1)"></path><path d="M157.5 122.5L192.5 122.5L227.5 157.5" stroke-width="5.83" stroke="rgba(255, 255, 255, 1)"></path><path d="M151.67 122.5 a5.83 5.83 0 1 0 11.66 0 a5.83 5.83 0 1 0 -11.66 0zM221.67 157.5 a5.83 5.83 0 1 0 11.66 0 a5.83 5.83 0 1 0 -11.66 0z" fill="rgba(255, 255, 255, 1)"></path><path d="M612.5 577.5L577.5 542.5L542.5 542.5" stroke-width="5.83" stroke="rgba(255, 255, 255, 1)"></path><path d="M606.67 577.5 a5.83 5.83 0 1 0 11.66 0 a5.83 5.83 0 1 0 -11.66 0zM536.67 542.5 a5.83 5.83 0 1 0 11.66 0 a5.83 5.83 0 1 0 -11.66 0z" fill="rgba(255, 255, 255, 1)"></path><path d="M472.5 227.5L437.5 227.5L402.5 192.5L402.5 157.5" stroke-width="5.83" stroke="rgba(255, 255, 255, 1)"></path><path d="M466.67 227.5 a5.83 5.83 0 1 0 11.66 0 a5.83 5.83 0 1 0 -11.66 0zM396.67 157.5 a5.83 5.83 0 1 0 11.66 0 a5.83 5.83 0 1 0 -11.66 0z" fill="rgba(255, 255, 255, 1)"></path><path d="M122.5 262.5L87.5 297.5L52.5 297.5" stroke-width="5.83" stroke="rgba(255, 255, 255, 1)"></path><path d="M116.67 262.5 a5.83 5.83 0 1 0 11.66 0 a5.83 5.83 0 1 0 -11.66 0zM46.67 297.5 a5.83 5.83 0 1 0 11.66 0 a5.83 5.83 0 1 0 -11.66 0z" fill="rgba(255, 255, 255, 1)"></path><path d="M577.5 507.5L577.5 472.5L542.5 437.5" stroke-width="5.83" stroke="rgba(255, 255, 255, 1)"></path><path d="M571.67 507.5 a5.83 5.83 0 1 0 11.66 0 a5.83 5.83 0 1 0 -11.66 0zM536.67 437.5 a5.83 5.83 0 1 0 11.66 0 a5.83 5.83 0 1 0 -11.66 0z" fill="rgba(255, 255, 255, 1)"></path></g></g><defs><mask id="SvgjsMask1195"><rect width="640" height="620" fill="#ffffff"></rect></mask></defs></svg>