<svg xmlns="http://www.w3.org/2000/svg" version="1.1" xmlns:xlink="http://www.w3.org/1999/xlink" xmlns:svgjs="http://svgjs.com/svgjs" width="1920" height="1080" preserveAspectRatio="none" viewBox="0 0 1920 1080"><g mask="url(&quot;#SvgjsMask1073&quot;)" fill="none"><rect width="1920" height="1080" x="0" y="0" fill="rgba(29, 29, 29, 1)"></rect><path d="M174.71 0C237.16 82.17 168.78 146.52 205.2 270C216.43 308.08 239.92 323.11 270 323.11C295.14 323.11 290.44 294.26 315.63 270C425.44 164.26 421.55 157.91 540 63.12C590.24 22.91 592.01 14.26 653.02 0C727.01 -17.3 731.51 0 810 0C945 0 945 0 1080 0C1215 0 1215 0 1350 0C1485 0 1485 0 1620 0C1755 0 1755 0 1890 0C1937.25 0 1940.47 -13.96 1984.5 0C2075.47 28.85 2114.87 16.18 2160 85.61C2202.62 151.18 2160 177.81 2160 270C2160 352.17 2201.43 376.81 2160 434.35C2104.23 511.81 1965.6 498.39 1965.6 540C1965.6 577.92 2113.14 528.33 2160 593.41C2210.34 663.33 2160 701.7 2160 810C2160 939.67 2182.27 957.98 2160 1069.34C2155.27 1092.98 2133.42 1078.92 2106 1080C1998.42 1084.25 1998 1080 1890 1080C1755 1080 1755 1080 1620 1080C1521.43 1080 1422.86 1118.23 1422.86 1080C1422.86 1028.23 1505.88 926.38 1620 900C1739.45 872.38 1789.59 999.94 1890 972C1951.29 954.94 1943.41 891.67 1943.41 810C1943.41 713.47 1936.21 699.96 1890 615.6C1862.26 564.96 1845.58 573.75 1795.5 540C1710.58 482.77 1691.57 433.64 1620 433.64C1579.1 433.64 1604.54 492.63 1570.56 540C1469.54 680.81 1460.28 675 1350 810C1350 810 1350 810 1350 810C1291.15 945 1321.29 991.02 1232.31 1080C1186.29 1126.02 1156.15 1080 1080 1080C945 1080 945 1080 810 1080C675 1080 675 1080 540 1080C405 1080 405 1080 270 1080C135 1080 67.5 1147.5 0 1080C-67.5 1012.5 0 945 0 810C0 675 0 675 0 540C0 405 0 405 0 270C0 135 -53.04 81.96 0 0C34.32 -53.04 134.56 -52.83 174.71 0" stroke="rgba(118, 17, 212, 1)" stroke-width="2"></path><path d="M810 476.47C713.85 490.45 623.79 504 623.79 540C623.79 577.31 712.41 613.45 810 623.08C940.51 635.95 951.37 618.14 1080 585C1112.62 576.6 1132.5 565.04 1132.5 540C1132.5 509.38 1118.46 481.26 1080 473.68C957.21 449.49 941.95 457.29 810 476.47" stroke="rgba(118, 17, 212, 1)" stroke-width="2"></path><path d="M75.44 0C102.88 105.52 20.48 159.15 70.2 270C117.76 376.04 177.26 433.77 270 433.77C347.51 433.77 336.3 347.98 410.7 270C471.3 206.48 467.62 199.72 540 150.78C667.27 64.72 675 75.39 810 0C810 0 810 0 810 0C945 0 945 0 1080 0C1215 0 1215 0 1350 0C1485 0 1485 0 1620 0C1709.15 0 1720.46 -26.94 1798.3 0C1855.46 19.79 1836.57 56.49 1890 93.46C2017.42 181.61 2033.04 167.22 2160 250.24C2168.04 255.49 2160 260.12 2160 270C2160 278.81 2167.18 282.91 2160 287.61C2032.18 371.18 2020.31 451.08 1890 446.54C1767.62 442.28 1770.57 360.31 1654.62 270C1635.57 255.16 1637.65 236.25 1620 236.25C1601.59 236.25 1593.19 247.52 1582.5 270C1520.94 399.4 1544.56 414.15 1475.49 540C1428.31 625.96 1412.98 617 1350 693.62C1302.02 752 1298.11 749.04 1253.57 810C1163.11 933.79 1168.35 937.87 1080 1063.13C1073.13 1072.87 1074.76 1079.27 1063.13 1080C939.76 1087.71 936.57 1080 810 1080C675 1080 675 1080 540 1080C430.54 1080 370.73 1140.45 321.08 1080C259.84 1005.45 338.67 936.8 318.21 810C313.13 778.53 295.75 763.45 270 763.45C239.5 763.45 209.59 774.21 205.71 810C192.41 932.49 290.72 1007.71 235.64 1080C187.86 1142.71 54.91 1142.91 0 1080C-62.91 1007.91 0 945 0 810C0 675 0 675 0 540C0 405 0 405 0 270C0 135 -29.48 105.52 0 0C8.24 -29.48 67.78 -29.48 75.44 0" stroke="rgba(118, 17, 212, 1)" stroke-width="2"></path><path d="M540 453.6C476.88 477.47 432 493.47 432 540C432 592.05 472.82 617.55 540 650.77C661.82 711.01 674.13 723.25 810 726.92C944.13 730.54 957.25 720.48 1080 665.36C1165.38 627.02 1226.25 609.74 1226.25 540C1226.25 454.69 1176.37 388.35 1080 355.26C968.25 316.88 944.35 372.59 810 397.06C674.35 421.76 665.88 406 540 453.6" stroke="rgba(118, 17, 212, 1)" stroke-width="2"></path><path d="M2017.58 810C2017.58 735.6 2118.29 667.58 2160 667.58C2189.5 667.58 2160 738.79 2160 810C2160 895.26 2190.92 980.53 2160 980.53C2119.71 980.53 2017.58 892.07 2017.58 810" stroke="rgba(118, 17, 212, 1)" stroke-width="2"></path><path d="M1530 1080C1530 1056.37 1569.17 997.83 1620 997.83C1697.55 997.83 1786.76 1058.34 1786.76 1080C1786.76 1099.43 1703.38 1080 1620 1080C1575 1080 1530 1097.45 1530 1080" stroke="rgba(118, 17, 212, 1)" stroke-width="2"></path><path d="M505.77 270C505.77 252.4 518.24 245.68 540 238.44C670.35 195.06 680.51 159.75 810 168.75C907.56 175.53 994.09 230.92 994.09 270C994.09 305.37 903.82 307.61 810 317.65C676.78 331.91 664.67 338.13 540 318.6C512.55 314.3 505.77 292.48 505.77 270" stroke="rgba(118, 17, 212, 1)" stroke-width="2"></path><path d="M1080 112.5C1053.59 112.5 1035 41.02 1035 0C1035 -15.23 1057.5 0 1080 0C1112.14 0 1144.29 -18.65 1144.29 0C1144.29 37.6 1108.24 112.5 1080 112.5" stroke="rgba(118, 17, 212, 1)" stroke-width="2"></path><path d="M1225.38 270C1230.42 212.27 1296.87 196.36 1350 196.36C1381.68 196.36 1391.32 228.43 1395 270C1406.53 400.25 1399.52 409.57 1380.42 540C1377.02 563.19 1365.15 577.24 1350 577.24C1334.94 577.24 1328.92 562 1320 540C1266.61 408.38 1215.42 384.09 1225.38 270" stroke="rgba(118, 17, 212, 1)" stroke-width="2"></path><path d="M1620 67.5C1574.01 67.5 1516.15 18.36 1516.15 0C1516.15 -15.39 1568.07 0 1620 0C1645.47 0 1670.94 -12.69 1670.94 0C1670.94 21.06 1651.4 67.5 1620 67.5" stroke="rgba(118, 17, 212, 1)" stroke-width="2"></path><path d="M1827.69 270C1827.69 246.63 1857.61 223.27 1890 223.27C1927.96 223.27 1968.39 246.63 1968.39 270C1968.39 293.37 1927.96 316.73 1890 316.73C1857.61 316.73 1827.69 293.37 1827.69 270" stroke="rgba(118, 17, 212, 1)" stroke-width="2"></path><path d="M864 810C964.83 765.82 978.61 745.71 1080 745.71C1125.18 745.71 1157.14 772.52 1157.14 810C1157.14 860.91 1124.56 871.23 1080 922.5C1007.24 1006.23 1012.2 1027.68 922.5 1080C877.2 1106.43 866.25 1080 810 1080C675 1080 675 1080 540 1080C521.76 1080 503.51 1095.12 503.51 1080C503.51 998.69 475.63 932.51 540 887.14C628.87 824.51 683.62 894.09 810 864C845.62 855.52 829.83 824.97 864 810" stroke="rgba(118, 17, 212, 1)" stroke-width="2"></path><path d="M2091.76 810C2091.76 774.35 2140.01 741.76 2160 741.76C2174.13 741.76 2160 775.88 2160 810C2160 850.86 2174.82 891.71 2160 891.71C2140.7 891.71 2091.76 849.33 2091.76 810" stroke="rgba(118, 17, 212, 1)" stroke-width="2"></path><path d="M0 885.94C30.28 885.94 112.91 1015.44 112.91 1080C112.91 1112.47 20.77 1115.69 0 1080C-35.69 1018.66 -26.17 885.94 0 885.94" stroke="rgba(118, 17, 212, 1)" stroke-width="2"></path></g><defs><mask id="SvgjsMask1073"><rect width="1920" height="1080" fill="#ffffff"></rect></mask></defs></svg>