<svg xmlns="http://www.w3.org/2000/svg" version="1.1" xmlns:xlink="http://www.w3.org/1999/xlink" xmlns:svgjs="http://svgjs.com/svgjs" width="2000" height="1080" preserveAspectRatio="none" viewBox="0 0 2000 1080"><g mask="url(&quot;#SvgjsMask1026&quot;)" fill="none"><rect width="2000" height="1080" x="0" y="0" fill="rgba(29, 29, 29, 1)"></rect><path d="M1592.26-155.07C1392.93-124.16 1293.3 350.77 966.92 354.77 640.53 358.77 654.24 219.77 341.57 219.77 28.9 219.77-123.83 354-283.77 354.77" stroke="rgba(137, 51, 194, 0.58)" stroke-width="2"></path><path d="M1643.26-12.92C1459.05 5.61 1343.52 398.03 1028.32 399.75 713.11 401.47 720.84 264.75 413.37 264.75 105.9 264.75-44.18 398.96-201.57 399.75" stroke="rgba(137, 51, 194, 0.58)" stroke-width="2"></path><path d="M1664.45-206.61C1426.5-205.31 1231.62-8.22 736.03 3.08 240.44 14.38 69.2 474.68-192.39 489.08" stroke="rgba(137, 51, 194, 0.58)" stroke-width="2"></path><path d="M939.61-77.33C762.98-38.84 759.49 363.01 418.86 424.35 78.24 485.69 62.18 811.09-101.88 834.75" stroke="rgba(137, 51, 194, 0.58)" stroke-width="2"></path><path d="M1370.67-55.52C1157.5 87.55 1269.97 851.33 898.88 856.63 527.79 861.93 217.92 404.58-44.71 392.23" stroke="rgba(137, 51, 194, 0.58)" stroke-width="2"></path></g><defs><mask id="SvgjsMask1026"><rect width="2000" height="1080" fill="#ffffff"></rect></mask></defs></svg>