<svg xmlns="http://www.w3.org/2000/svg" version="1.1" xmlns:xlink="http://www.w3.org/1999/xlink" xmlns:svgjs="http://svgjs.com/svgjs" width="2000" height="1080" preserveAspectRatio="none" viewBox="0 0 2000 1080"><g mask="url(&quot;#SvgjsMask1018&quot;)" fill="none"><rect width="2000" height="1080" x="0" y="0" fill="rgba(29, 29, 29, 1)"></rect><path d="M-394.98 60.44C-194.09 63.53-88.31 263.03 369.32 308.84 826.95 354.65 869.02 1020.36 1133.62 1084.01" stroke="rgba(137, 51, 194, 0.58)" stroke-width="2"></path><path d="M-85.1 913.99C82.35 904.57 206.62 599.9 508.14 600.79 809.67 601.68 905.94 1094.04 1101.39 1130.68" stroke="rgba(137, 51, 194, 0.58)" stroke-width="2"></path><path d="M-194.76 732.92C50.51 730.87 271.91 483.09 754.38 484.52 1236.85 485.95 1424.33 1056.73 1703.52 1080.79" stroke="rgba(137, 51, 194, 0.58)" stroke-width="2"></path><path d="M-190.13 351.77C-50.18 352.78 81.51 486.77 353.16 486.77 624.8 486.77 575.82 323.36 896.45 351.77 1217.08 380.18 1216.73 1071.07 1439.74 1177.52" stroke="rgba(137, 51, 194, 0.58)" stroke-width="2"></path><path d="M-372.42 654.87C-143.75 677.2 70.67 1145.19 393.69 1162.47 716.72 1179.75 678.54 1249.07 776.75 1249.62" stroke="rgba(137, 51, 194, 0.58)" stroke-width="2"></path></g><defs><mask id="SvgjsMask1018"><rect width="2000" height="1080" fill="#ffffff"></rect></mask></defs></svg>