<svg xmlns="http://www.w3.org/2000/svg" version="1.1" xmlns:xlink="http://www.w3.org/1999/xlink" xmlns:svgjs="http://svgjs.com/svgjs" width="2000" height="1080" preserveAspectRatio="none" viewBox="0 0 2000 1080"><g mask="url(&quot;#SvgjsMask1015&quot;)" fill="none"><path d="M630.94 1186.02C860.81 1177.67 1012.32 827.7 1471.33 811.45 1930.33 795.2 2082.57 452.15 2311.71 444.25" stroke="rgba(118, 17, 212, 1)" stroke-width="2"></path><path d="M222.2 1170.67C521.27 1112.43 662.52 352.49 1123.52 350.3 1584.52 348.11 1775.21 771.33 2024.84 782.3" stroke="rgba(118, 17, 212, 1)" stroke-width="2"></path><path d="M521 1294.02C706.25 1254.86 779.32 778.37 1070.48 772.8 1361.64 767.23 1345.22 907.8 1619.96 907.8 1894.7 907.8 2027.99 773.78 2169.44 772.8" stroke="rgba(118, 17, 212, 1)" stroke-width="2"></path><path d="M1289.22 1109.4C1462.91 960.89 1353.45 279.97 1648.9 269.06 1944.35 258.15 2167.8 615.87 2368.27 625.46" stroke="rgba(118, 17, 212, 1)" stroke-width="2"></path><path d="M1166.82 1150.75C1364.79 1096.11 1434.03 547.59 1721.6 544.87 2009.17 542.15 2118.71 837.66 2276.38 847.27" stroke="rgba(118, 17, 212, 1)" stroke-width="2"></path></g><defs><mask id="SvgjsMask1015"><rect width="2000" height="1080" fill="#ffffff"></rect></mask></defs></svg>