<svg xmlns="http://www.w3.org/2000/svg" version="1.1" xmlns:xlink="http://www.w3.org/1999/xlink" xmlns:svgjs="http://svgjs.com/svgjs" width="1440" height="560" preserveAspectRatio="none" viewBox="0 0 1440 560"><g mask="url(&quot;#SvgjsMask1007&quot;)" fill="none"><rect width="1440" height="560" x="0" y="0" fill="rgba(29, 29, 29, 1)"></rect><path d="M -716.9834073868615,232 C -620.98,263.8 -428.98,387 -236.98340738686144,391 C -44.98,395 51.02,237.4 243.01659261313856,252 C 435.02,266.6 531.02,493.8 723.0165926131385,464 C 915.02,434.2 1059.62,107.6 1203.0165926131385,103 C 1346.41,98.4 1392.6,373.4 1440,441" stroke="rgba(118, 17, 212, 1)" stroke-width="2"></path><path d="M -479.34715022091757,98 C -383.35,135 -191.35,280.2 0.6528497790824161,283 C 192.65,285.8 288.65,108.6 480.65284977908243,112 C 672.65,115.4 768.65,304 960.6528497790824,300 C 1152.65,296 1344.78,80.4 1440.6528497790823,92 C 1536.52,103.6 1440.13,304.8 1440,358" stroke="rgba(118, 17, 212, 1)" stroke-width="2"></path><path d="M -740.9282301251271,503 C -644.93,455.8 -452.93,283.4 -260.9282301251272,267 C -68.93,250.6 27.07,419.2 219.0717698748728,421 C 411.07,422.8 507.07,292.8 699.0717698748729,276 C 891.07,259.2 1030.89,338.4 1179.0717698748729,337 C 1327.26,335.6 1387.81,282.6 1440,269" stroke="rgba(153, 0, 255, 1)" stroke-width="2"></path><path d="M -648.8077146827615,125 C -552.81,190.8 -360.81,461.2 -168.80771468276149,454 C 23.19,446.8 119.19,93 311.19228531723854,89 C 503.19,85 599.19,410.8 791.1922853172385,434 C 983.19,457.2 1141.43,229.2 1271.1922853172384,205 C 1400.95,180.8 1406.24,291.4 1440,313" stroke="rgba(118, 17, 212, 1)" stroke-width="2"></path></g><defs><mask id="SvgjsMask1007"><rect width="1440" height="560" fill="#ffffff"></rect></mask></defs></svg>