<svg width="134" height="36" viewBox="0 0 134 36" fill="none" xmlns="http://www.w3.org/2000/svg">
<path d="M60.6364 15.4545L63.8395 20.7812H63.9531L67.1705 15.4545H70.1747L65.6932 22.7273L70.2457 30H67.1918L63.9531 24.7088H63.8395L60.6009 30H57.5611L62.1562 22.7273L57.6179 15.4545H60.6364ZM71.2489 15.4545H74.2248L77.783 21.8892H77.9251L81.4833 15.4545H84.4592L79.168 24.5739V30H76.5401V24.5739L71.2489 15.4545ZM86.0554 30V28.3594L93.5128 17.6634H86.0128V15.4545H96.7798V17.0952L89.3295 27.7912H96.8224V30H86.0554Z" fill="white"/>
<path d="M104.773 17.2727V18.1534H100.608V17.2727H104.773ZM101.909 15.1818H102.926V23.7216C102.926 24.0852 102.989 24.3712 103.114 24.5795C103.239 24.7841 103.402 24.9299 103.602 25.017C103.803 25.1004 104.017 25.142 104.244 25.142C104.377 25.142 104.491 25.1345 104.585 25.1193C104.68 25.1004 104.763 25.0814 104.835 25.0625L105.051 25.9773C104.953 26.0152 104.831 26.0492 104.688 26.0795C104.544 26.1136 104.366 26.1307 104.153 26.1307C103.782 26.1307 103.424 26.0492 103.08 25.8864C102.739 25.7235 102.458 25.4811 102.239 25.1591C102.019 24.8371 101.909 24.4375 101.909 23.9602V15.1818ZM110.504 26.1818C109.69 26.1818 108.985 25.9924 108.391 25.6136C107.796 25.2311 107.336 24.7027 107.01 24.0284C106.688 23.3504 106.527 22.5701 106.527 21.6875C106.527 20.8087 106.688 20.0284 107.01 19.3466C107.336 18.661 107.785 18.125 108.357 17.7386C108.932 17.3485 109.597 17.1534 110.351 17.1534C110.824 17.1534 111.281 17.2405 111.72 17.4148C112.16 17.5852 112.554 17.8485 112.902 18.2045C113.254 18.5568 113.533 19.0019 113.737 19.5398C113.942 20.0739 114.044 20.7064 114.044 21.4375V21.9375H107.226V21.0455H113.01C113.01 20.4848 112.896 19.9811 112.669 19.5341C112.446 19.0833 112.133 18.7273 111.732 18.4659C111.334 18.2045 110.874 18.0739 110.351 18.0739C109.798 18.0739 109.311 18.2216 108.891 18.517C108.47 18.8125 108.141 19.2027 107.902 19.6875C107.667 20.1723 107.548 20.7027 107.544 21.2784V21.8125C107.544 22.5057 107.663 23.1117 107.902 23.6307C108.144 24.1458 108.487 24.5455 108.93 24.8295C109.374 25.1136 109.898 25.2557 110.504 25.2557C110.917 25.2557 111.279 25.1913 111.589 25.0625C111.904 24.9337 112.167 24.7614 112.379 24.5455C112.595 24.3258 112.758 24.0852 112.868 23.8239L113.828 24.1364C113.696 24.5038 113.478 24.8428 113.175 25.1534C112.875 25.464 112.5 25.714 112.05 25.9034C111.603 26.089 111.088 26.1818 110.504 26.1818ZM119.682 26.1818C118.902 26.1818 118.222 25.9867 117.642 25.5966C117.066 25.2064 116.619 24.6723 116.301 23.9943C115.983 23.3163 115.824 22.5436 115.824 21.6761C115.824 20.8011 115.985 20.0227 116.307 19.3409C116.633 18.6591 117.083 18.125 117.659 17.7386C118.235 17.3485 118.903 17.1534 119.665 17.1534C120.248 17.1534 120.777 17.267 121.25 17.4943C121.723 17.7178 122.114 18.0341 122.42 18.4432C122.731 18.8485 122.926 19.322 123.006 19.8636H121.983C121.877 19.3712 121.621 18.9508 121.216 18.6023C120.814 18.25 120.303 18.0739 119.682 18.0739C119.125 18.0739 118.633 18.2254 118.205 18.5284C117.777 18.8277 117.441 19.2462 117.199 19.7841C116.96 20.3182 116.841 20.9375 116.841 21.642C116.841 22.3504 116.958 22.9773 117.193 23.5227C117.428 24.0644 117.758 24.4886 118.182 24.7955C118.61 25.1023 119.11 25.2557 119.682 25.2557C120.068 25.2557 120.42 25.1837 120.739 25.0398C121.061 24.892 121.33 24.6837 121.545 24.4148C121.765 24.1458 121.913 23.8258 121.989 23.4545H123.011C122.936 23.9811 122.748 24.4508 122.449 24.8636C122.153 25.2727 121.769 25.5947 121.295 25.8295C120.826 26.0644 120.288 26.1818 119.682 26.1818ZM126.19 20.5455V26H125.179V14.3636H126.19V18.642H126.281C126.486 18.1913 126.802 17.8314 127.23 17.5625C127.662 17.2936 128.207 17.1591 128.866 17.1591C129.457 17.1591 129.976 17.2803 130.423 17.5227C130.87 17.7652 131.219 18.1231 131.469 18.5966C131.719 19.0701 131.844 19.6534 131.844 20.3466V26H130.827V20.4091C130.827 19.6894 130.626 19.1231 130.224 18.7102C129.827 18.2936 129.289 18.0852 128.611 18.0852C128.145 18.0852 127.73 18.1837 127.366 18.3807C127.003 18.5777 126.715 18.8617 126.503 19.233C126.295 19.6004 126.19 20.0379 126.19 20.5455Z" fill="white"/>
<path d="M25.4962 0L50.9924 35.7568H0L25.4962 0Z" fill="#F3F3F3"/>
<path d="M39.468 18.4865L52 36H26.9359L39.468 18.4865Z" fill="#1D1D1D"/>
</svg>
