<svg width="144" height="36" viewBox="0 0 144 36" fill="none" xmlns="http://www.w3.org/2000/svg">
<path d="M60.3807 15.832L64.1662 27.2809H64.3153L68.0938 15.832H70.9915L65.8636 30.3775H62.6108L57.4901 15.832H60.3807ZM72.2681 18.0408V15.832H83.8732V18.0408H79.3775V30.3775H76.7638V18.0408H72.2681ZM86.1104 30.3775V15.832H95.5707V18.0408H88.7454V21.9897H95.0806V24.1985H88.7454V28.1687H95.6275V30.3775H86.1104ZM100.461 15.832L103.664 21.1587H103.777L106.995 15.832H109.999L105.517 23.1048L110.07 30.3775H107.016L103.777 25.0863H103.664L100.425 30.3775H97.3853L101.98 23.1048L97.4421 15.832H100.461Z" fill="white"/>
<path d="M114.773 17.6502V18.5309H110.608V17.6502H114.773ZM111.909 15.5593H112.926V24.0991C112.926 24.4627 112.989 24.7487 113.114 24.957C113.239 25.1616 113.402 25.3074 113.602 25.3945C113.803 25.4779 114.017 25.5195 114.244 25.5195C114.377 25.5195 114.491 25.512 114.585 25.4968C114.68 25.4779 114.763 25.4589 114.835 25.44L115.051 26.3548C114.953 26.3926 114.831 26.4267 114.688 26.457C114.544 26.4911 114.366 26.5082 114.153 26.5082C113.782 26.5082 113.424 26.4267 113.08 26.2638C112.739 26.101 112.458 25.8585 112.239 25.5366C112.019 25.2146 111.909 24.815 111.909 24.3377V15.5593ZM120.504 26.5593C119.69 26.5593 118.985 26.3699 118.391 25.9911C117.796 25.6085 117.336 25.0801 117.01 24.4059C116.688 23.7279 116.527 22.9476 116.527 22.065C116.527 21.1862 116.688 20.4059 117.01 19.7241C117.336 19.0385 117.785 18.5025 118.357 18.1161C118.932 17.726 119.597 17.5309 120.351 17.5309C120.824 17.5309 121.281 17.618 121.72 17.7923C122.16 17.9627 122.554 18.226 122.902 18.582C123.254 18.9343 123.533 19.3794 123.737 19.9173C123.942 20.4513 124.044 21.0839 124.044 21.815V22.315H117.226V21.4229H123.01C123.01 20.8623 122.896 20.3585 122.669 19.9116C122.446 19.4608 122.133 19.1048 121.732 18.8434C121.334 18.582 120.874 18.4513 120.351 18.4513C119.798 18.4513 119.311 18.5991 118.891 18.8945C118.47 19.19 118.141 19.5801 117.902 20.065C117.667 20.5498 117.548 21.0801 117.544 21.6559V22.19C117.544 22.8832 117.663 23.4892 117.902 24.0082C118.144 24.5233 118.487 24.9229 118.93 25.207C119.374 25.4911 119.898 25.6332 120.504 25.6332C120.917 25.6332 121.279 25.5688 121.589 25.44C121.904 25.3112 122.167 25.1388 122.379 24.9229C122.595 24.7032 122.758 24.4627 122.868 24.2013L123.828 24.5138C123.696 24.8813 123.478 25.2203 123.175 25.5309C122.875 25.8415 122.5 26.0915 122.05 26.2809C121.603 26.4665 121.088 26.5593 120.504 26.5593ZM129.682 26.5593C128.902 26.5593 128.222 26.3642 127.642 25.9741C127.066 25.5839 126.619 25.0498 126.301 24.3718C125.983 23.6938 125.824 22.921 125.824 22.0536C125.824 21.1786 125.985 20.4002 126.307 19.7184C126.633 19.0366 127.083 18.5025 127.659 18.1161C128.235 17.726 128.903 17.5309 129.665 17.5309C130.248 17.5309 130.777 17.6445 131.25 17.8718C131.723 18.0953 132.114 18.4116 132.42 18.8207C132.731 19.226 132.926 19.6995 133.006 20.2411H131.983C131.877 19.7487 131.621 19.3282 131.216 18.9798C130.814 18.6275 130.303 18.4513 129.682 18.4513C129.125 18.4513 128.633 18.6029 128.205 18.9059C127.777 19.2051 127.441 19.6237 127.199 20.1616C126.96 20.6957 126.841 21.315 126.841 22.0195C126.841 22.7279 126.958 23.3548 127.193 23.9002C127.428 24.4419 127.758 24.8661 128.182 25.1729C128.61 25.4798 129.11 25.6332 129.682 25.6332C130.068 25.6332 130.42 25.5612 130.739 25.4173C131.061 25.2695 131.33 25.0612 131.545 24.7923C131.765 24.5233 131.913 24.2032 131.989 23.832H133.011C132.936 24.3585 132.748 24.8282 132.449 25.2411C132.153 25.6502 131.769 25.9722 131.295 26.207C130.826 26.4419 130.288 26.5593 129.682 26.5593ZM136.19 20.9229V26.3775H135.179V14.7411H136.19V19.0195H136.281C136.486 18.5688 136.802 18.2089 137.23 17.94C137.662 17.671 138.207 17.5366 138.866 17.5366C139.457 17.5366 139.976 17.6578 140.423 17.9002C140.87 18.1426 141.219 18.5006 141.469 18.9741C141.719 19.4476 141.844 20.0309 141.844 20.7241V26.3775H140.827V20.7866C140.827 20.0669 140.626 19.5006 140.224 19.0877C139.827 18.671 139.289 18.4627 138.611 18.4627C138.145 18.4627 137.73 18.5612 137.366 18.7582C137.003 18.9551 136.715 19.2392 136.503 19.6104C136.295 19.9779 136.19 20.4154 136.19 20.9229Z" fill="white"/>
<path d="M25.4962 0L50.9924 35.7568H0L25.4962 0Z" fill="#F3F3F3"/>
<path d="M39.468 18.4865L52 36H26.9359L39.468 18.4865Z" fill="#1D1D1D"/>
</svg>
