<svg xmlns="http://www.w3.org/2000/svg" version="1.1" xmlns:xlink="http://www.w3.org/1999/xlink" xmlns:svgjs="http://svgjs.com/svgjs" width="1920" height="1080" preserveAspectRatio="none" viewBox="0 0 1920 1080"><g mask="url(&quot;#SvgjsMask1193&quot;)" fill="none"><rect width="1920" height="1080" x="0" y="0" fill="rgba(29, 29, 29, 1)"></rect><path d="M0,814.508C164.609,830.728,350.825,850.722,481.834,749.748C611.79,649.586,591.752,450.566,663.59,303.052C737.985,150.288,934.642,37.282,910.722,-130.942C886.809,-299.122,669.932,-356.005,552.435,-478.688C442.637,-593.332,390.723,-769.582,243.124,-828.005C92.416,-887.658,-77.558,-839.21,-231.689,-789.059C-382.454,-740.004,-528.836,-667.892,-628.332,-544.453C-726.049,-423.221,-763.274,-266.851,-777.583,-111.799C-791.364,37.533,-770.799,187.146,-708.433,323.53C-646.088,459.867,-547.661,575.053,-424.444,660.448C-298.179,747.955,-152.884,799.444,0,814.508" fill="#1b1b1b"></path><path d="M1920 1767.0149999999999C2080.771 1787.6219999999998 2252.513 1896.691 2393.761 1817.187 2534.228 1738.123 2528.998 1535.305 2593.839 1387.732 2657.5299999999997 1242.774 2778.718 1115.745 2771.4539999999997 957.579 2763.973 794.6890000000001 2662.114 652.711 2554.458 530.239 2447.3540000000003 408.395 2313.342 315.51099999999997 2160.145 262.14300000000003 2001.45 206.86 1821.879 154.10400000000004 1667.891 221.39499999999998 1516.792 287.424 1480.835 481.273 1373.074 606.086 1265.583 730.587 1056.0140000000001 789.645 1036.29 952.942 1016.5 1116.785 1191.499 1233.083 1280.56 1372.0230000000001 1355.681 1489.216 1399.9189999999999 1631.825 1518.349 1704.981 1635.9859999999999 1777.647 1782.851 1749.4360000000001 1920 1767.0149999999999" fill="#1f1f1f"></path></g><defs><mask id="SvgjsMask1193"><rect width="1920" height="1080" fill="#ffffff"></rect></mask></defs></svg>